<mxfile host="app.diagrams.net" modified="2021-09-12T00:19:23.502Z" agent="5.0 (Windows NT 10.0; Win64; x64) AppleWebKit/537.36 (KHTML, like Gecko) Chrome/93.0.4577.63 Safari/537.36" etag="iDzx-WyjGmyDTJT84tVp" version="15.1.4" type="github" pages="2">
  <diagram id="KnE0DojCTduFjPBjx93h" name="Project structure">
    <mxGraphModel dx="1422" dy="794" grid="1" gridSize="10" guides="1" tooltips="1" connect="1" arrows="1" fold="1" page="1" pageScale="1" pageWidth="827" pageHeight="1169" math="0" shadow="0">
      <root>
        <mxCell id="0" />
        <mxCell id="1" parent="0" />
        <mxCell id="tBqzJ4MgUW6KoWlNYG0D-12" value="" style="rounded=0;whiteSpace=wrap;html=1;" parent="1" vertex="1">
          <mxGeometry x="40" y="20" width="222.5" height="580" as="geometry" />
        </mxCell>
        <mxCell id="tBqzJ4MgUW6KoWlNYG0D-13" value="" style="rounded=0;whiteSpace=wrap;html=1;" parent="1" vertex="1">
          <mxGeometry x="73.75" y="220" width="150" height="160" as="geometry" />
        </mxCell>
        <mxCell id="tBqzJ4MgUW6KoWlNYG0D-14" value="DJANGO&amp;nbsp;&lt;br&gt;(FRONT/BACK)" style="whiteSpace=wrap;html=1;aspect=fixed;" parent="1" vertex="1">
          <mxGeometry x="98.75" y="260" width="105" height="105" as="geometry" />
        </mxCell>
        <mxCell id="tBqzJ4MgUW6KoWlNYG0D-15" value="Docker container" style="text;html=1;strokeColor=none;fillColor=none;align=center;verticalAlign=middle;whiteSpace=wrap;rounded=0;" parent="1" vertex="1">
          <mxGeometry x="83.75" y="220" width="130" height="40" as="geometry" />
        </mxCell>
        <mxCell id="tBqzJ4MgUW6KoWlNYG0D-18" value="" style="rounded=0;whiteSpace=wrap;html=1;" parent="1" vertex="1">
          <mxGeometry x="76.25" y="410" width="150" height="160" as="geometry" />
        </mxCell>
        <mxCell id="tBqzJ4MgUW6KoWlNYG0D-19" value="DATABASE&lt;br&gt;(POSTGRESQL)" style="rounded=0;whiteSpace=wrap;html=1;" parent="1" vertex="1">
          <mxGeometry x="91.25" y="480" width="120" height="60" as="geometry" />
        </mxCell>
        <mxCell id="tBqzJ4MgUW6KoWlNYG0D-20" value="Docker container" style="text;html=1;strokeColor=none;fillColor=none;align=center;verticalAlign=middle;whiteSpace=wrap;rounded=0;" parent="1" vertex="1">
          <mxGeometry x="86.25" y="430" width="130" height="40" as="geometry" />
        </mxCell>
        <mxCell id="tBqzJ4MgUW6KoWlNYG0D-21" value="HOST" style="text;html=1;strokeColor=none;fillColor=none;align=center;verticalAlign=middle;whiteSpace=wrap;rounded=0;" parent="1" vertex="1">
          <mxGeometry x="131.25" y="30" width="40" height="20" as="geometry" />
        </mxCell>
        <mxCell id="tBqzJ4MgUW6KoWlNYG0D-23" value="" style="rounded=0;whiteSpace=wrap;html=1;" parent="1" vertex="1">
          <mxGeometry x="76.25" y="60" width="145" height="130" as="geometry" />
        </mxCell>
        <mxCell id="tBqzJ4MgUW6KoWlNYG0D-25" value="Docker container" style="text;html=1;strokeColor=none;fillColor=none;align=center;verticalAlign=middle;whiteSpace=wrap;rounded=0;" parent="1" vertex="1">
          <mxGeometry x="86.25" y="70" width="130" height="40" as="geometry" />
        </mxCell>
        <mxCell id="tBqzJ4MgUW6KoWlNYG0D-26" value="" style="rounded=0;whiteSpace=wrap;html=1;" parent="1" vertex="1">
          <mxGeometry x="91.25" y="110" width="120" height="70" as="geometry" />
        </mxCell>
        <mxCell id="tBqzJ4MgUW6KoWlNYG0D-28" value="NGINX&lt;br&gt;(PROXY)" style="text;html=1;strokeColor=none;fillColor=none;align=center;verticalAlign=middle;whiteSpace=wrap;rounded=0;" parent="1" vertex="1">
          <mxGeometry x="131.25" y="130" width="40" height="25" as="geometry" />
        </mxCell>
      </root>
    </mxGraphModel>
  </diagram>
  <diagram id="PjAdXTBemE1KsV0ese1i" name="Database">
    <mxGraphModel dx="1422" dy="794" grid="1" gridSize="10" guides="1" tooltips="1" connect="1" arrows="1" fold="1" page="1" pageScale="1" pageWidth="827" pageHeight="1169" math="0" shadow="0">
      <root>
        <mxCell id="d5uLXDLZQr8_mXUhO0Rj-0" />
        <mxCell id="d5uLXDLZQr8_mXUhO0Rj-1" parent="d5uLXDLZQr8_mXUhO0Rj-0" />
        <mxCell id="eGi3eXLpUCcT8nkQsEue-2" value="Users" style="shape=table;startSize=30;container=1;collapsible=1;childLayout=tableLayout;fixedRows=1;rowLines=0;fontStyle=1;align=center;resizeLast=1;" vertex="1" parent="d5uLXDLZQr8_mXUhO0Rj-1">
          <mxGeometry x="20" y="20" width="180" height="290" as="geometry" />
        </mxCell>
        <mxCell id="eGi3eXLpUCcT8nkQsEue-3" value="" style="shape=partialRectangle;collapsible=0;dropTarget=0;pointerEvents=0;fillColor=none;top=0;left=0;bottom=1;right=0;points=[[0,0.5],[1,0.5]];portConstraint=eastwest;" vertex="1" parent="eGi3eXLpUCcT8nkQsEue-2">
          <mxGeometry y="30" width="180" height="30" as="geometry" />
        </mxCell>
        <mxCell id="eGi3eXLpUCcT8nkQsEue-4" value="PK" style="shape=partialRectangle;connectable=0;fillColor=none;top=0;left=0;bottom=0;right=0;fontStyle=1;overflow=hidden;" vertex="1" parent="eGi3eXLpUCcT8nkQsEue-3">
          <mxGeometry width="30" height="30" as="geometry" />
        </mxCell>
        <mxCell id="eGi3eXLpUCcT8nkQsEue-5" value="ID" style="shape=partialRectangle;connectable=0;fillColor=none;top=0;left=0;bottom=0;right=0;align=left;spacingLeft=6;fontStyle=5;overflow=hidden;" vertex="1" parent="eGi3eXLpUCcT8nkQsEue-3">
          <mxGeometry x="30" width="150" height="30" as="geometry" />
        </mxCell>
        <mxCell id="eGi3eXLpUCcT8nkQsEue-6" value="" style="shape=partialRectangle;collapsible=0;dropTarget=0;pointerEvents=0;fillColor=none;top=0;left=0;bottom=0;right=0;points=[[0,0.5],[1,0.5]];portConstraint=eastwest;" vertex="1" parent="eGi3eXLpUCcT8nkQsEue-2">
          <mxGeometry y="60" width="180" height="30" as="geometry" />
        </mxCell>
        <mxCell id="eGi3eXLpUCcT8nkQsEue-7" value="" style="shape=partialRectangle;connectable=0;fillColor=none;top=0;left=0;bottom=0;right=0;editable=1;overflow=hidden;" vertex="1" parent="eGi3eXLpUCcT8nkQsEue-6">
          <mxGeometry width="30" height="30" as="geometry" />
        </mxCell>
        <mxCell id="eGi3eXLpUCcT8nkQsEue-8" value="email" style="shape=partialRectangle;connectable=0;fillColor=none;top=0;left=0;bottom=0;right=0;align=left;spacingLeft=6;overflow=hidden;" vertex="1" parent="eGi3eXLpUCcT8nkQsEue-6">
          <mxGeometry x="30" width="150" height="30" as="geometry" />
        </mxCell>
        <mxCell id="eGi3eXLpUCcT8nkQsEue-9" value="" style="shape=partialRectangle;collapsible=0;dropTarget=0;pointerEvents=0;fillColor=none;top=0;left=0;bottom=0;right=0;points=[[0,0.5],[1,0.5]];portConstraint=eastwest;" vertex="1" parent="eGi3eXLpUCcT8nkQsEue-2">
          <mxGeometry y="90" width="180" height="30" as="geometry" />
        </mxCell>
        <mxCell id="eGi3eXLpUCcT8nkQsEue-10" value="" style="shape=partialRectangle;connectable=0;fillColor=none;top=0;left=0;bottom=0;right=0;editable=1;overflow=hidden;" vertex="1" parent="eGi3eXLpUCcT8nkQsEue-9">
          <mxGeometry width="30" height="30" as="geometry" />
        </mxCell>
        <mxCell id="eGi3eXLpUCcT8nkQsEue-11" value="password" style="shape=partialRectangle;connectable=0;fillColor=none;top=0;left=0;bottom=0;right=0;align=left;spacingLeft=6;overflow=hidden;" vertex="1" parent="eGi3eXLpUCcT8nkQsEue-9">
          <mxGeometry x="30" width="150" height="30" as="geometry" />
        </mxCell>
        <mxCell id="eGi3eXLpUCcT8nkQsEue-12" value="" style="shape=partialRectangle;collapsible=0;dropTarget=0;pointerEvents=0;fillColor=none;top=0;left=0;bottom=0;right=0;points=[[0,0.5],[1,0.5]];portConstraint=eastwest;" vertex="1" parent="eGi3eXLpUCcT8nkQsEue-2">
          <mxGeometry y="120" width="180" height="30" as="geometry" />
        </mxCell>
        <mxCell id="eGi3eXLpUCcT8nkQsEue-13" value="" style="shape=partialRectangle;connectable=0;fillColor=none;top=0;left=0;bottom=0;right=0;editable=1;overflow=hidden;" vertex="1" parent="eGi3eXLpUCcT8nkQsEue-12">
          <mxGeometry width="30" height="30" as="geometry" />
        </mxCell>
        <mxCell id="eGi3eXLpUCcT8nkQsEue-14" value="" style="shape=partialRectangle;connectable=0;fillColor=none;top=0;left=0;bottom=0;right=0;align=left;spacingLeft=6;overflow=hidden;" vertex="1" parent="eGi3eXLpUCcT8nkQsEue-12">
          <mxGeometry x="30" width="150" height="30" as="geometry" />
        </mxCell>
        <mxCell id="eGi3eXLpUCcT8nkQsEue-15" value="last_name" style="shape=partialRectangle;connectable=0;fillColor=none;top=0;left=0;bottom=0;right=0;align=left;spacingLeft=6;overflow=hidden;" vertex="1" parent="d5uLXDLZQr8_mXUhO0Rj-1">
          <mxGeometry x="50" y="170" width="150" height="30" as="geometry" />
        </mxCell>
        <mxCell id="eGi3eXLpUCcT8nkQsEue-16" value="first_name" style="shape=partialRectangle;connectable=0;fillColor=none;top=0;left=0;bottom=0;right=0;align=left;spacingLeft=6;overflow=hidden;" vertex="1" parent="d5uLXDLZQr8_mXUhO0Rj-1">
          <mxGeometry x="50" y="140" width="150" height="30" as="geometry" />
        </mxCell>
        <mxCell id="eGi3eXLpUCcT8nkQsEue-17" value="user_type" style="shape=partialRectangle;connectable=0;fillColor=none;top=0;left=0;bottom=0;right=0;align=left;spacingLeft=6;overflow=hidden;" vertex="1" parent="d5uLXDLZQr8_mXUhO0Rj-1">
          <mxGeometry x="50" y="200" width="150" height="30" as="geometry" />
        </mxCell>
        <mxCell id="eGi3eXLpUCcT8nkQsEue-18" value="FK" style="shape=partialRectangle;connectable=0;fillColor=none;top=0;left=0;bottom=0;right=0;fontStyle=1;overflow=hidden;" vertex="1" parent="d5uLXDLZQr8_mXUhO0Rj-1">
          <mxGeometry x="20" y="200" width="30" height="30" as="geometry" />
        </mxCell>
        <mxCell id="eGi3eXLpUCcT8nkQsEue-19" value="info" style="shape=partialRectangle;connectable=0;fillColor=none;top=0;left=0;bottom=0;right=0;align=left;spacingLeft=6;overflow=hidden;" vertex="1" parent="d5uLXDLZQr8_mXUhO0Rj-1">
          <mxGeometry x="50" y="230" width="150" height="30" as="geometry" />
        </mxCell>
        <mxCell id="eGi3eXLpUCcT8nkQsEue-20" value="UserTypes" style="shape=table;startSize=30;container=1;collapsible=1;childLayout=tableLayout;fixedRows=1;rowLines=0;fontStyle=1;align=center;resizeLast=1;" vertex="1" parent="d5uLXDLZQr8_mXUhO0Rj-1">
          <mxGeometry x="290" y="20" width="180" height="140" as="geometry" />
        </mxCell>
        <mxCell id="eGi3eXLpUCcT8nkQsEue-21" value="" style="shape=partialRectangle;collapsible=0;dropTarget=0;pointerEvents=0;fillColor=none;top=0;left=0;bottom=1;right=0;points=[[0,0.5],[1,0.5]];portConstraint=eastwest;" vertex="1" parent="eGi3eXLpUCcT8nkQsEue-20">
          <mxGeometry y="30" width="180" height="30" as="geometry" />
        </mxCell>
        <mxCell id="eGi3eXLpUCcT8nkQsEue-22" value="PK" style="shape=partialRectangle;connectable=0;fillColor=none;top=0;left=0;bottom=0;right=0;fontStyle=1;overflow=hidden;" vertex="1" parent="eGi3eXLpUCcT8nkQsEue-21">
          <mxGeometry width="30" height="30" as="geometry" />
        </mxCell>
        <mxCell id="eGi3eXLpUCcT8nkQsEue-23" value="ID" style="shape=partialRectangle;connectable=0;fillColor=none;top=0;left=0;bottom=0;right=0;align=left;spacingLeft=6;fontStyle=5;overflow=hidden;" vertex="1" parent="eGi3eXLpUCcT8nkQsEue-21">
          <mxGeometry x="30" width="150" height="30" as="geometry" />
        </mxCell>
        <mxCell id="eGi3eXLpUCcT8nkQsEue-24" value="" style="shape=partialRectangle;collapsible=0;dropTarget=0;pointerEvents=0;fillColor=none;top=0;left=0;bottom=0;right=0;points=[[0,0.5],[1,0.5]];portConstraint=eastwest;" vertex="1" parent="eGi3eXLpUCcT8nkQsEue-20">
          <mxGeometry y="60" width="180" height="30" as="geometry" />
        </mxCell>
        <mxCell id="eGi3eXLpUCcT8nkQsEue-25" value="" style="shape=partialRectangle;connectable=0;fillColor=none;top=0;left=0;bottom=0;right=0;editable=1;overflow=hidden;" vertex="1" parent="eGi3eXLpUCcT8nkQsEue-24">
          <mxGeometry width="30" height="30" as="geometry" />
        </mxCell>
        <mxCell id="eGi3eXLpUCcT8nkQsEue-26" value="type_name" style="shape=partialRectangle;connectable=0;fillColor=none;top=0;left=0;bottom=0;right=0;align=left;spacingLeft=6;overflow=hidden;" vertex="1" parent="eGi3eXLpUCcT8nkQsEue-24">
          <mxGeometry x="30" width="150" height="30" as="geometry" />
        </mxCell>
        <mxCell id="eGi3eXLpUCcT8nkQsEue-27" value="" style="shape=partialRectangle;collapsible=0;dropTarget=0;pointerEvents=0;fillColor=none;top=0;left=0;bottom=0;right=0;points=[[0,0.5],[1,0.5]];portConstraint=eastwest;" vertex="1" parent="eGi3eXLpUCcT8nkQsEue-20">
          <mxGeometry y="90" width="180" height="30" as="geometry" />
        </mxCell>
        <mxCell id="eGi3eXLpUCcT8nkQsEue-28" value="" style="shape=partialRectangle;connectable=0;fillColor=none;top=0;left=0;bottom=0;right=0;editable=1;overflow=hidden;" vertex="1" parent="eGi3eXLpUCcT8nkQsEue-27">
          <mxGeometry width="30" height="30" as="geometry" />
        </mxCell>
        <mxCell id="eGi3eXLpUCcT8nkQsEue-29" value="" style="shape=partialRectangle;connectable=0;fillColor=none;top=0;left=0;bottom=0;right=0;align=left;spacingLeft=6;overflow=hidden;" vertex="1" parent="eGi3eXLpUCcT8nkQsEue-27">
          <mxGeometry x="30" width="150" height="30" as="geometry" />
        </mxCell>
        <mxCell id="eGi3eXLpUCcT8nkQsEue-30" value="" style="shape=partialRectangle;collapsible=0;dropTarget=0;pointerEvents=0;fillColor=none;top=0;left=0;bottom=0;right=0;points=[[0,0.5],[1,0.5]];portConstraint=eastwest;" vertex="1" parent="eGi3eXLpUCcT8nkQsEue-20">
          <mxGeometry y="120" width="180" height="20" as="geometry" />
        </mxCell>
        <mxCell id="eGi3eXLpUCcT8nkQsEue-31" value="" style="shape=partialRectangle;connectable=0;fillColor=none;top=0;left=0;bottom=0;right=0;editable=1;overflow=hidden;" vertex="1" parent="eGi3eXLpUCcT8nkQsEue-30">
          <mxGeometry width="30" height="20" as="geometry" />
        </mxCell>
        <mxCell id="eGi3eXLpUCcT8nkQsEue-32" value="" style="shape=partialRectangle;connectable=0;fillColor=none;top=0;left=0;bottom=0;right=0;align=left;spacingLeft=6;overflow=hidden;" vertex="1" parent="eGi3eXLpUCcT8nkQsEue-30">
          <mxGeometry x="30" width="150" height="20" as="geometry" />
        </mxCell>
        <mxCell id="eGi3eXLpUCcT8nkQsEue-36" value="" style="edgeStyle=entityRelationEdgeStyle;fontSize=12;html=1;endArrow=ERoneToMany;startArrow=ERmandOne;entryX=1;entryY=0.5;entryDx=0;entryDy=0;exitX=0;exitY=0.5;exitDx=0;exitDy=0;" edge="1" parent="d5uLXDLZQr8_mXUhO0Rj-1" source="eGi3eXLpUCcT8nkQsEue-21" target="eGi3eXLpUCcT8nkQsEue-3">
          <mxGeometry width="100" height="100" relative="1" as="geometry">
            <mxPoint x="240" y="270" as="sourcePoint" />
            <mxPoint x="340" y="170" as="targetPoint" />
          </mxGeometry>
        </mxCell>
        <mxCell id="eGi3eXLpUCcT8nkQsEue-37" value="Lessons_subject" style="shape=table;startSize=30;container=1;collapsible=1;childLayout=tableLayout;fixedRows=1;rowLines=0;fontStyle=1;align=center;resizeLast=1;" vertex="1" parent="d5uLXDLZQr8_mXUhO0Rj-1">
          <mxGeometry x="290" y="180" width="180" height="150" as="geometry" />
        </mxCell>
        <mxCell id="eGi3eXLpUCcT8nkQsEue-38" value="" style="shape=partialRectangle;collapsible=0;dropTarget=0;pointerEvents=0;fillColor=none;top=0;left=0;bottom=1;right=0;points=[[0,0.5],[1,0.5]];portConstraint=eastwest;" vertex="1" parent="eGi3eXLpUCcT8nkQsEue-37">
          <mxGeometry y="30" width="180" height="30" as="geometry" />
        </mxCell>
        <mxCell id="eGi3eXLpUCcT8nkQsEue-39" value="PK" style="shape=partialRectangle;connectable=0;fillColor=none;top=0;left=0;bottom=0;right=0;fontStyle=1;overflow=hidden;" vertex="1" parent="eGi3eXLpUCcT8nkQsEue-38">
          <mxGeometry width="30" height="30" as="geometry" />
        </mxCell>
        <mxCell id="eGi3eXLpUCcT8nkQsEue-40" value="ID" style="shape=partialRectangle;connectable=0;fillColor=none;top=0;left=0;bottom=0;right=0;align=left;spacingLeft=6;fontStyle=5;overflow=hidden;" vertex="1" parent="eGi3eXLpUCcT8nkQsEue-38">
          <mxGeometry x="30" width="150" height="30" as="geometry" />
        </mxCell>
        <mxCell id="eGi3eXLpUCcT8nkQsEue-41" value="" style="shape=partialRectangle;collapsible=0;dropTarget=0;pointerEvents=0;fillColor=none;top=0;left=0;bottom=0;right=0;points=[[0,0.5],[1,0.5]];portConstraint=eastwest;" vertex="1" parent="eGi3eXLpUCcT8nkQsEue-37">
          <mxGeometry y="60" width="180" height="30" as="geometry" />
        </mxCell>
        <mxCell id="eGi3eXLpUCcT8nkQsEue-42" value="" style="shape=partialRectangle;connectable=0;fillColor=none;top=0;left=0;bottom=0;right=0;editable=1;overflow=hidden;" vertex="1" parent="eGi3eXLpUCcT8nkQsEue-41">
          <mxGeometry width="30" height="30" as="geometry" />
        </mxCell>
        <mxCell id="eGi3eXLpUCcT8nkQsEue-43" value="lesson_name" style="shape=partialRectangle;connectable=0;fillColor=none;top=0;left=0;bottom=0;right=0;align=left;spacingLeft=6;overflow=hidden;" vertex="1" parent="eGi3eXLpUCcT8nkQsEue-41">
          <mxGeometry x="30" width="150" height="30" as="geometry" />
        </mxCell>
        <mxCell id="eGi3eXLpUCcT8nkQsEue-44" value="" style="shape=partialRectangle;collapsible=0;dropTarget=0;pointerEvents=0;fillColor=none;top=0;left=0;bottom=0;right=0;points=[[0,0.5],[1,0.5]];portConstraint=eastwest;" vertex="1" parent="eGi3eXLpUCcT8nkQsEue-37">
          <mxGeometry y="90" width="180" height="30" as="geometry" />
        </mxCell>
        <mxCell id="eGi3eXLpUCcT8nkQsEue-45" value="" style="shape=partialRectangle;connectable=0;fillColor=none;top=0;left=0;bottom=0;right=0;editable=1;overflow=hidden;" vertex="1" parent="eGi3eXLpUCcT8nkQsEue-44">
          <mxGeometry width="30" height="30" as="geometry" />
        </mxCell>
        <mxCell id="eGi3eXLpUCcT8nkQsEue-46" value="" style="shape=partialRectangle;connectable=0;fillColor=none;top=0;left=0;bottom=0;right=0;align=left;spacingLeft=6;overflow=hidden;" vertex="1" parent="eGi3eXLpUCcT8nkQsEue-44">
          <mxGeometry x="30" width="150" height="30" as="geometry" />
        </mxCell>
        <mxCell id="eGi3eXLpUCcT8nkQsEue-47" value="" style="shape=partialRectangle;collapsible=0;dropTarget=0;pointerEvents=0;fillColor=none;top=0;left=0;bottom=0;right=0;points=[[0,0.5],[1,0.5]];portConstraint=eastwest;" vertex="1" parent="eGi3eXLpUCcT8nkQsEue-37">
          <mxGeometry y="120" width="180" height="30" as="geometry" />
        </mxCell>
        <mxCell id="eGi3eXLpUCcT8nkQsEue-48" value="" style="shape=partialRectangle;connectable=0;fillColor=none;top=0;left=0;bottom=0;right=0;editable=1;overflow=hidden;" vertex="1" parent="eGi3eXLpUCcT8nkQsEue-47">
          <mxGeometry width="30" height="30" as="geometry" />
        </mxCell>
        <mxCell id="eGi3eXLpUCcT8nkQsEue-49" value="" style="shape=partialRectangle;connectable=0;fillColor=none;top=0;left=0;bottom=0;right=0;align=left;spacingLeft=6;overflow=hidden;" vertex="1" parent="eGi3eXLpUCcT8nkQsEue-47">
          <mxGeometry x="30" width="150" height="30" as="geometry" />
        </mxCell>
        <mxCell id="eGi3eXLpUCcT8nkQsEue-69" value="User_LessonsSubject" style="shape=table;startSize=30;container=1;collapsible=1;childLayout=tableLayout;fixedRows=1;rowLines=0;fontStyle=1;align=center;resizeLast=1;" vertex="1" parent="d5uLXDLZQr8_mXUhO0Rj-1">
          <mxGeometry x="22.5" y="330" width="205" height="90" as="geometry" />
        </mxCell>
        <mxCell id="eGi3eXLpUCcT8nkQsEue-70" value="" style="shape=partialRectangle;collapsible=0;dropTarget=0;pointerEvents=0;fillColor=none;top=0;left=0;bottom=0;right=0;points=[[0,0.5],[1,0.5]];portConstraint=eastwest;" vertex="1" parent="eGi3eXLpUCcT8nkQsEue-69">
          <mxGeometry y="30" width="205" height="30" as="geometry" />
        </mxCell>
        <mxCell id="eGi3eXLpUCcT8nkQsEue-71" value="FK1" style="shape=partialRectangle;connectable=0;fillColor=none;top=0;left=0;bottom=0;right=0;fontStyle=1;overflow=hidden;" vertex="1" parent="eGi3eXLpUCcT8nkQsEue-70">
          <mxGeometry width="60" height="30" as="geometry" />
        </mxCell>
        <mxCell id="eGi3eXLpUCcT8nkQsEue-72" value="ID_USER" style="shape=partialRectangle;connectable=0;fillColor=none;top=0;left=0;bottom=0;right=0;align=left;spacingLeft=6;fontStyle=5;overflow=hidden;" vertex="1" parent="eGi3eXLpUCcT8nkQsEue-70">
          <mxGeometry x="60" width="145" height="30" as="geometry" />
        </mxCell>
        <mxCell id="eGi3eXLpUCcT8nkQsEue-73" value="" style="shape=partialRectangle;collapsible=0;dropTarget=0;pointerEvents=0;fillColor=none;top=0;left=0;bottom=1;right=0;points=[[0,0.5],[1,0.5]];portConstraint=eastwest;" vertex="1" parent="eGi3eXLpUCcT8nkQsEue-69">
          <mxGeometry y="60" width="205" height="30" as="geometry" />
        </mxCell>
        <mxCell id="eGi3eXLpUCcT8nkQsEue-74" value="FK2" style="shape=partialRectangle;connectable=0;fillColor=none;top=0;left=0;bottom=0;right=0;fontStyle=1;overflow=hidden;" vertex="1" parent="eGi3eXLpUCcT8nkQsEue-73">
          <mxGeometry width="60" height="30" as="geometry" />
        </mxCell>
        <mxCell id="eGi3eXLpUCcT8nkQsEue-75" value="ID_LESSON_SUBJECT" style="shape=partialRectangle;connectable=0;fillColor=none;top=0;left=0;bottom=0;right=0;align=left;spacingLeft=6;fontStyle=5;overflow=hidden;" vertex="1" parent="eGi3eXLpUCcT8nkQsEue-73">
          <mxGeometry x="60" width="145" height="30" as="geometry" />
        </mxCell>
        <mxCell id="eGi3eXLpUCcT8nkQsEue-82" value="Lesson" style="shape=table;startSize=30;container=1;collapsible=1;childLayout=tableLayout;fixedRows=1;rowLines=0;fontStyle=1;align=center;resizeLast=1;" vertex="1" parent="d5uLXDLZQr8_mXUhO0Rj-1">
          <mxGeometry x="290" y="340" width="180" height="160" as="geometry" />
        </mxCell>
        <mxCell id="eGi3eXLpUCcT8nkQsEue-83" value="" style="shape=partialRectangle;collapsible=0;dropTarget=0;pointerEvents=0;fillColor=none;top=0;left=0;bottom=1;right=0;points=[[0,0.5],[1,0.5]];portConstraint=eastwest;" vertex="1" parent="eGi3eXLpUCcT8nkQsEue-82">
          <mxGeometry y="30" width="180" height="30" as="geometry" />
        </mxCell>
        <mxCell id="eGi3eXLpUCcT8nkQsEue-84" value="PK" style="shape=partialRectangle;connectable=0;fillColor=none;top=0;left=0;bottom=0;right=0;fontStyle=1;overflow=hidden;" vertex="1" parent="eGi3eXLpUCcT8nkQsEue-83">
          <mxGeometry width="30" height="30" as="geometry" />
        </mxCell>
        <mxCell id="eGi3eXLpUCcT8nkQsEue-85" value="ID" style="shape=partialRectangle;connectable=0;fillColor=none;top=0;left=0;bottom=0;right=0;align=left;spacingLeft=6;fontStyle=5;overflow=hidden;" vertex="1" parent="eGi3eXLpUCcT8nkQsEue-83">
          <mxGeometry x="30" width="150" height="30" as="geometry" />
        </mxCell>
        <mxCell id="eGi3eXLpUCcT8nkQsEue-86" value="" style="shape=partialRectangle;collapsible=0;dropTarget=0;pointerEvents=0;fillColor=none;top=0;left=0;bottom=0;right=0;points=[[0,0.5],[1,0.5]];portConstraint=eastwest;" vertex="1" parent="eGi3eXLpUCcT8nkQsEue-82">
          <mxGeometry y="60" width="180" height="30" as="geometry" />
        </mxCell>
        <mxCell id="eGi3eXLpUCcT8nkQsEue-87" value="FK" style="shape=partialRectangle;connectable=0;fillColor=none;top=0;left=0;bottom=0;right=0;editable=1;overflow=hidden;" vertex="1" parent="eGi3eXLpUCcT8nkQsEue-86">
          <mxGeometry width="30" height="30" as="geometry" />
        </mxCell>
        <mxCell id="eGi3eXLpUCcT8nkQsEue-88" value="ID_LESSON_SUBJECT" style="shape=partialRectangle;connectable=0;fillColor=none;top=0;left=0;bottom=0;right=0;align=left;spacingLeft=6;overflow=hidden;" vertex="1" parent="eGi3eXLpUCcT8nkQsEue-86">
          <mxGeometry x="30" width="150" height="30" as="geometry" />
        </mxCell>
        <mxCell id="eGi3eXLpUCcT8nkQsEue-89" value="" style="shape=partialRectangle;collapsible=0;dropTarget=0;pointerEvents=0;fillColor=none;top=0;left=0;bottom=0;right=0;points=[[0,0.5],[1,0.5]];portConstraint=eastwest;" vertex="1" parent="eGi3eXLpUCcT8nkQsEue-82">
          <mxGeometry y="90" width="180" height="30" as="geometry" />
        </mxCell>
        <mxCell id="eGi3eXLpUCcT8nkQsEue-90" value="FK" style="shape=partialRectangle;connectable=0;fillColor=none;top=0;left=0;bottom=0;right=0;editable=1;overflow=hidden;" vertex="1" parent="eGi3eXLpUCcT8nkQsEue-89">
          <mxGeometry width="30" height="30" as="geometry" />
        </mxCell>
        <mxCell id="eGi3eXLpUCcT8nkQsEue-91" value="ID_USER" style="shape=partialRectangle;connectable=0;fillColor=none;top=0;left=0;bottom=0;right=0;align=left;spacingLeft=6;overflow=hidden;" vertex="1" parent="eGi3eXLpUCcT8nkQsEue-89">
          <mxGeometry x="30" width="150" height="30" as="geometry" />
        </mxCell>
        <mxCell id="eGi3eXLpUCcT8nkQsEue-92" value="" style="shape=partialRectangle;collapsible=0;dropTarget=0;pointerEvents=0;fillColor=none;top=0;left=0;bottom=0;right=0;points=[[0,0.5],[1,0.5]];portConstraint=eastwest;" vertex="1" parent="eGi3eXLpUCcT8nkQsEue-82">
          <mxGeometry y="120" width="180" height="30" as="geometry" />
        </mxCell>
        <mxCell id="eGi3eXLpUCcT8nkQsEue-93" value="" style="shape=partialRectangle;connectable=0;fillColor=none;top=0;left=0;bottom=0;right=0;editable=1;overflow=hidden;" vertex="1" parent="eGi3eXLpUCcT8nkQsEue-92">
          <mxGeometry width="30" height="30" as="geometry" />
        </mxCell>
        <mxCell id="eGi3eXLpUCcT8nkQsEue-94" value="DATETIME_START" style="shape=partialRectangle;connectable=0;fillColor=none;top=0;left=0;bottom=0;right=0;align=left;spacingLeft=6;overflow=hidden;" vertex="1" parent="eGi3eXLpUCcT8nkQsEue-92">
          <mxGeometry x="30" width="150" height="30" as="geometry" />
        </mxCell>
      </root>
    </mxGraphModel>
  </diagram>
</mxfile>
